<?xml version="1.0" encoding="UTF-8" standalone="no"?>
<!-- Created with Inkscape (http://www.inkscape.org/) -->
<svg xmlns:dc="http://purl.org/dc/elements/1.1/" xmlns:cc="http://creativecommons.org/ns#" xmlns:rdf="http://www.w3.org/1999/02/22-rdf-syntax-ns#" xmlns:svg="http://www.w3.org/2000/svg" xmlns="http://www.w3.org/2000/svg" xmlns:sodipodi="http://sodipodi.sourceforge.net/DTD/sodipodi-0.dtd" xmlns:inkscape="http://www.inkscape.org/namespaces/inkscape" width="744.09448819" height="1052.3622047" id="svg2" version="1.1" inkscape:version="0.48.3.1 r9886" sodipodi:docname="New document 1">
  <defs id="defs4"/>
  <sodipodi:namedview id="base" pagecolor="#ffffff" bordercolor="#666666" borderopacity="1.0" inkscape:pageopacity="0.0" inkscape:pageshadow="2" inkscape:zoom="0.35" inkscape:cx="-141.89955" inkscape:cy="544.69716" inkscape:document-units="px" inkscape:current-layer="layer1" showgrid="false" showguides="true" inkscape:guide-bbox="true" inkscape:snap-bbox="false" inkscape:snap-bbox-midpoints="true" inkscape:bbox-paths="true" inkscape:object-paths="true" inkscape:snap-object-midpoints="true" inkscape:snap-center="true" inkscape:snap-midpoints="true" inkscape:snap-smooth-nodes="true" inkscape:object-nodes="true" inkscape:bbox-nodes="true" inkscape:snap-nodes="true" inkscape:snap-bbox-edge-midpoints="true" inkscape:snap-to-guides="false" inkscape:window-width="1366" inkscape:window-height="706" inkscape:window-x="-8" inkscape:window-y="-8" inkscape:window-maximized="1"/>
  <metadata id="metadata7">
    <rdf:RDF>
      <cc:Work rdf:about="">
        <dc:format>image/svg+xml</dc:format>
        <dc:type rdf:resource="http://purl.org/dc/dcmitype/StillImage"/>
        <dc:title/>
      </cc:Work>
    </rdf:RDF>
  </metadata>
  <g inkscape:label="Layer 1" inkscape:groupmode="layer" id="layer1">
    <g id="g3061" transform="matrix(4.7941145,0,0,4.7941145,-1028.4899,-1614.1307)">
      <path inkscape:connector-curvature="0" id="rect3056" d="m 256.38346,342.75431 c -14.64143,0 -26.4375,11.79607 -26.4375,26.4375 l 0,155.71875 c 0,14.64143 11.79607,26.4375 26.4375,26.4375 l 75.71875,0 c 14.64143,0 26.40625,-11.79607 26.40625,-26.4375 l 0,-155.71875 c 0,-14.64143 -11.76482,-26.4375 -26.40625,-26.4375 l -75.71875,0 z m -13.03125,26.3125 101.78125,0 0,154.78125 -101.78125,0 0,-154.78125 z" style="fill:#000000;fill-opacity:1;stroke:none"/>
      <path inkscape:connector-curvature="0" id="rect3029" d="m 271.76693,354.2476 c 14.98394,0 29.96787,0 44.9518,0 -1.1501,0.94993 -2.25432,1.94941 -3.283,3.03046 -12.79527,0 -25.59053,0 -38.3858,0 -1.02991,-1.08236 -2.13157,-2.07931 -3.283,-3.03046 z" style="fill:#323132;fill-opacity:1;stroke:none"/>
      <path transform="translate(179.59052,34.309435)" d="m 124.24877,503.84937 c 0,5.29997 -4.29648,9.59645 -9.59646,9.59645 -5.29997,0 -9.59645,-4.29648 -9.59645,-9.59645 0,-5.29998 4.29648,-9.59646 9.59645,-9.59646 5.29998,0 9.59646,4.29648 9.59646,9.59646 z" sodipodi:ry="9.5964527" sodipodi:rx="9.5964527" sodipodi:cy="503.84937" sodipodi:cx="114.65231" id="path3027" style="fill:#323132;fill-opacity:1;stroke:none" sodipodi:type="arc"/>
    </g>
  </g>
</svg>