<?xml version="1.0" encoding="UTF-8"?>
<svg width="640" height="480" xmlns="http://www.w3.org/2000/svg">
 <title>internet</title>
 <g>
  <title>Layer 1</title>
  <g id="layer1">
   <path fill="#ffffff" stroke="#000000" stroke-width="14.790461" stroke-linejoin="round" stroke-miterlimit="4" stroke-dashoffset="0" id="path4952" d="m426.779816,49.792053c-35.98822,-8.425301 -72.40802,1.216637 -97.550476,22.163116c-13.135864,-13.795326 -30.922577,-24.442505 -52.257019,-29.436806c-54.906387,-12.853962 -111.469727,15.678646 -126.181915,63.651329c-1.0811,3.525032 -1.365738,7.069847 -1.945526,10.595482c-49.445862,-4.490837 -96.757774,22.554527 -110.03146,65.837181c-13.152391,42.886612 11.666843,86.739563 56.27544,104.770203c-2.424828,4.594177 -4.685715,9.327148 -6.234657,14.377228c-14.711983,47.972687 17.977348,97.286804 72.88385,110.140747c26.893326,6.296936 54.071289,2.599426 76.632187,-8.376465c12.433975,23.240997 35.616425,41.946442 66.176727,49.100433c43.602905,10.208191 87.848877,-5.962402 111.736298,-36.956116c9.676208,5.985046 20.431702,10.935791 32.54715,13.772675c54.906403,12.853912 111.348053,-15.707672 126.060333,-63.680359c7.398071,-24.123108 2.820374,-48.5354 -10.534424,-68.542847c13.216919,-11.011292 23.562439,-24.959381 28.631409,-41.488205c14.712158,-47.973267 -17.977234,-97.287384 -72.883606,-110.141373c-5.779907,-1.352524 -11.56958,-2.114456 -17.334259,-2.576736c3.416626,-42.127563 -27.572235,-81.874149 -75.990051,-93.209488z"/>
  </g>
 </g>
</svg>